<?xml version="1.0" encoding="utf-8"?>
<!-- Generator: Adobe Illustrator 22.1.0, SVG Export Plug-In . SVG Version: 6.00 Build 0)  -->
<svg version="1.1"
	 id="Warstwa_1" xmlns:cc="http://creativecommons.org/ns#" xmlns:dc="http://purl.org/dc/elements/1.1/" xmlns:rdf="http://www.w3.org/1999/02/22-rdf-syntax-ns#"
	 xmlns="http://www.w3.org/2000/svg" xmlns:xlink="http://www.w3.org/1999/xlink" x="0px" y="0px" viewBox="0 0 1601.2 586"
	 style="enable-background:new 0 0 1601.2 586;" xml:space="preserve">
<style type="text/css">
	.st0{fill:#82B541;}
	.st1{fill:#FCFCFC;}
	.st2{fill:#FFFFFF;}
	.st3{fill:#F9F9F9;}
	.st4{fill:#FCFAFA;}
</style>
<g>
	<path class="st0" d="M206.1,172c-8-4.5-31.1-1.7-58.8,6.9C98.8,212,57.8,260.9,55,339.3c-0.5,1.9-5.3-0.3-6.2-0.8
		c-13.1-25.1-18.3-51.5-7.3-89.7c2-3.4-4.6-7.6-5.8-6.4c-2.4,2.4-12.4,13.1-19,24.6c-32.9,57.1-11.4,130.4,46.2,162.4
		c57.6,32.1,130.4,11.4,162.4-46.2C262.3,316.6,227.8,184.2,206.1,172L206.1,172z"/>
	<path class="st1" d="M412.3,203.9c-68.3,0-117.9,50.8-117.9,120.8c0,70.5,49.5,119.8,120.3,119.8c35.8,0,64.1-11.2,86.6-34.2
		c6.7-7.3,7.5-14.3,7.5-16.9c0-11.4-8.5-19.7-20.2-19.7c-5.9,0-10.8,2.2-16.5,7.5c-12.8,11.9-29.5,24-57.4,24
		c-38.8,0-70.3-29.1-72.3-66.5h154.3c16.8,0,24.9-7.8,24.9-24c0-4.7,0-8.2-1-14.9C512.4,239.8,471.8,203.9,412.3,203.9L412.3,203.9z
		 M412.3,241.4c37,0,60.8,23.6,62.3,61.7H342.5C345.9,267.8,375.7,241.4,412.3,241.4L412.3,241.4z"/>
	<path class="st2" d="M669,203.9c-31,0-61.8,17.8-73.8,42.6v-15.3c0-23.7-18.4-24.9-22.1-24.9c-10.9,0-22.5,6.5-22.5,24.9v185
		c0,24.6,19.6,25.9,23.5,25.9c3.9,0,23.5-1.2,23.5-25.9v-99.2c0-43.1,24.5-73.3,59.5-73.3c33.9,0,50.4,22.3,50.4,68v104.4
		c0,24.6,19.6,25.9,23.5,25.9s23.5-1.2,23.5-25.9V297.1C754.4,252,732,204,669,203.9L669,203.9z"/>
	<path class="st3" d="M967.1,206.3c-10.9,0-18.7,6.3-23.4,18.8l-64.3,161.7l-63.8-161.7c-5-12.7-12.8-18.8-23.9-18.8
		c-13,0-23.5,10.1-23.5,22.5c0,3.1,0.3,7.1,3,13.3L845,416.7c8.8,21,23.3,25.5,33.9,25.5c10.6,0,25.1-4.4,33.9-25.5l74.4-175.5
		c2.5-6.2,2.9-10.7,2.9-12.8C990.1,215.8,980.2,206.3,967.1,206.3L967.1,206.3L967.1,206.3z"/>
	<path class="st3" d="M1103.7,203.9c-30.1,0-58.1,8.4-78.8,23.6c-7,4.9-10.5,10.9-10.5,18.5c0,10.5,8,18.7,18.3,18.7
		c4.4,0,9.4-1.8,13.9-5c17.9-11.9,34.6-17.5,52.8-17.5c34.8,0,54.7,17.7,54.7,48.5v5.1c-78,0.1-157.4,9.5-157.4,77.4
		c0,48.8,41.7,70.7,83.1,70.7c32.9,0,59.3-13.1,76.1-37.8v11.9c0,17.7,11.9,24,22.1,24c2.1,0,21.1-0.7,21.1-24V293.7
		C1199.2,237.5,1163.5,203.9,1103.7,203.9L1103.7,203.9z M1144.2,330.6h9.9v10.8c0,39.6-25.2,65.2-64.2,65.2
		c-10.6,0-45.2-2.5-45.2-34.2C1044.7,334.9,1101.5,330.6,1144.2,330.6z"/>
	<path class="st4" d="M1321.6,249c20.6,0,21.6-16,21.6-19.2c0-9.5-5.7-19.7-21.6-19.7h-42.3v-42.8c0-19.1-12.4-25.9-23-25.9
		c-3.9,0-23.5,1.2-23.5,25.9v203.1c0,46.9,23.1,71.6,66.9,71.6c11.3,0,22.4-2,29.6-5.4c8.3-4.1,13-10.9,13-18.6
		c0-10.9-7.9-18.7-18.7-18.7c-2.1,0-5.1,0.5-8.4,1.5c-4,1-6.8,1.4-9.7,1.4c-17.8,0-26.1-11.6-26.1-36.6V249L1321.6,249L1321.6,249z"
		/>
	<path class="st2" d="M1477,203.9c-71.1,0-122.7,50.4-122.7,119.8c0,33.8,12.5,64.6,35.2,86.7c22.5,22,53.6,34,87.5,34
		c70.2,0,123.1-51.9,123.1-120.8C1600.2,254.3,1548.4,203.9,1477,203.9L1477,203.9z M1477,404.7c-48.7,0-74.2-40.7-74.2-80.9
		c0-55.3,38.5-80.4,74.2-80.4s74.2,25.2,74.2,80.4C1551.3,379.3,1512.8,404.7,1477,404.7z"/>
</g>
</svg>
